Coordinates
version=1
nRows=7
nColumns=40
inDegrees=yes

Units are S.I. units (second, meters, Newtons, ...)
If the header above contains a line with 'inDegrees', this indicates whether rotational values are in degrees (yes) or radians (no).

endheader
time	pelvis_tilt	pelvis_list	pelvis_rotation	pelvis_tx	pelvis_ty	pelvis_tz	hip_flexion_r	hip_adduction_r	hip_rotation_r	knee_angle_r	knee_angle_r_beta	ankle_angle_r	subtalar_angle_r	mtp_angle_r	hip_flexion_l	hip_adduction_l	hip_rotation_l	knee_angle_l	knee_angle_l_beta	ankle_angle_l	subtalar_angle_l	mtp_angle_l	lumbar_extension	lumbar_bending	lumbar_rotation	arm_flex_r	arm_add_r	arm_rot_r	elbow_flex_r	pro_sup_r	wrist_flex_r	wrist_dev_r	arm_flex_l	arm_add_l	arm_rot_l	elbow_flex_l	pro_sup_l	wrist_flex_l	wrist_dev_l
      3.89166667	    -32.13777420	     -2.13444367	     10.25017076	     -0.30872825	      1.19710256	      0.02790533	     59.76410689	    -12.28963315	     -6.38899672	     46.95650446	      0.81954561	    -29.38438613	    -28.00534270	      0.00000000	     99.73829975	      3.02471689	      2.86305177	     90.47015103	      1.57900201	      8.68505245	     -8.51358262	      0.00000000	    -43.44835002	     10.98881933	     -6.79897768	     89.86193449	     -7.01283847	     12.51377730	     32.18810361	     86.28051659	      0.00000000	      0.00000000	     89.93408497	    -10.79240274	     31.24543381	     30.59704601	     72.80333898	      0.00000000	      0.00000000
      3.90000000	    -32.01817225	     -2.48904687	      9.99095271	     -0.30906082	      1.19692896	      0.02817005	     60.79013359	    -11.96456609	     -6.29213298	     49.88415469	      0.87064274	    -28.79956269	    -28.61377430	      0.00000000	     98.92754393	      2.83801114	      3.13469004	     88.24559741	      1.54017623	      7.94734670	     -8.34917221	      0.00000000	    -43.57488139	     11.21027297	     -6.31681465	     89.86546188	     -6.98861080	     12.39701533	     32.39193540	     86.29053083	      0.00000000	      0.00000000	     89.93415887	    -10.78902313	     31.13632867	     30.59297671	     72.79948356	      0.00000000	      0.00000000
      3.90833333	    -31.87516206	     -2.89255720	      9.65737350	     -0.30941378	      1.19689938	      0.02860775	     61.78992834	    -11.56214120	     -6.25217114	     52.69612067	      0.91972081	    -28.63497880	    -28.95338307	      0.00000000	     97.95875163	      2.62014901	      3.61523470	     85.95876831	      1.50026353	      7.44917149	     -8.42677022	      0.00000000	    -43.75875767	     11.41585799	     -5.71435483	     89.87209719	     -7.03305808	     12.31126524	     32.60162806	     86.30760308	      0.00000000	      0.00000000	     89.93366426	    -10.80103071	     31.05549062	     30.71190060	     72.79514532	      0.00000000	      0.00000000
      3.91666667	    -32.19487055	     -2.72846156	      9.38962400	     -0.31044473	      1.19618970	      0.02859195	     63.49796483	    -11.64468112	     -5.70988549	     55.74727454	      0.97297349	    -28.22721378	    -30.19033028	      0.00000000	     97.22649295	      2.51270815	      3.36562796	     83.39670889	      1.45554716	      6.29295610	     -9.16282633	      0.00000000	    -43.41044254	     11.19773563	     -5.71146630	     89.87450175	     -6.91321754	     12.24221421	     32.61681341	     86.43406682	      0.00000000	      0.00000000	     89.93354266	    -10.85338713	     31.07112397	     30.53889454	     72.77798692	      0.00000000	      0.00000000
      3.92500000	    -32.07118594	     -2.97690239	      9.00230612	     -0.31079162	      1.19590104	      0.02894114	     64.67167590	    -11.34614615	     -5.59985614	     58.67053837	      1.02399407	    -27.82982802	    -30.62551403	      0.00000000	     96.02846913	      2.16226651	      3.58767383	     80.88747674	      1.41175279	      5.35755708	     -9.03275413	      0.00000000	    -43.55261914	     11.26725583	     -5.19161643	     89.87813009	     -6.90434748	     12.15650887	     32.81018362	     86.46949190	      0.00000000	      0.00000000	     89.93318849	    -10.83998801	     30.98449977	     30.49650402	     72.73583536	      0.00000000	      0.00000000
      3.93333333	    -31.83232331	     -3.39567914	      8.59385501	     -0.31094499	      1.19557172	      0.02942322	     65.76018432	    -10.89331493	     -5.54051720	     61.58545772	      1.07486901	    -27.65502948	    -30.88697028	      0.00000000	     94.65965395	      1.82442896	      4.16091318	     78.44880890	      1.36919001	      4.88424373	     -9.13283857	      0.00000000	    -43.81236862	     11.47094205	     -4.51183545	     89.88186096	     -6.91695253	     12.04826019	     33.02168935	     86.46065072	      0.00000000	      0.00000000	     89.93215961	    -10.83627665	     30.92878825	     30.47410627	     72.71671227	      0.00000000	      0.00000000
      3.94166667	    -31.62514253	     -3.72487107	      8.13926699	     -0.31108967	      1.19519222	      0.02998172	     66.90414088	    -10.57079661	     -5.61871955	     64.43755002	      1.12464741	    -27.33583713	    -31.22943061	      0.00000000	     93.19189971	      1.43544719	      4.64975787	     75.87339442	      1.32424055	      4.26065085	     -9.20743695	      0.00000000	    -44.03722410	     11.55802562	     -3.87488359	     89.88506754	     -6.90153198	     12.03207876	     33.22340326	     86.50493967	      0.00000000	      0.00000000	     89.93137160	    -10.80075266	     30.86441511	     30.35972879	     72.68429915	      0.00000000	      0.00000000
